# xmcd CD database file
#
# Track frame offsets:
#	150
#	18940
#	36160
#	51755
#	66217
#	83882
#	107617
#	125485
#	145130
#	159902
#	179847
#
# Disc length: 2581 seconds
#
# Revision: 2
# Processed by: cddbd v1.5.2PL0 Copyright (c) Steve Scherf et al.
# Submitted via: CDex 1.70beta2
#
DISCID=910a130b
DTITLE=Helen Merrill - Parole e Musica
DYEAR=1961
DGENRE=Jazz Vocal
TTITLE0=Night And Day (Cole Porter)
TTITLE1=Everything Happens To Me (Adair-Dennis)
TTITLE2=Autumn In New York (Vernon Duke)
TTITLE3=Why Don't You Do Right (Joe McCoy)
TTITLE4=You Don't Know What Love Is (Don Raye-De Paul)
TTITLE5=These Foolish Things (Marvell-Maschwitz-Strachey)
TTITLE6=April In Paris (Harburg-Vernon Duke)
TTITLE7=I've Got You Under My Skin (Cole Porter)
TTITLE8=Solitude (De Lange-Mills-Duke Ellington)
TTITLE9=Willow Weep For Me (Ann Ronnell)
TTITLE10=When Your Lover Has Gone
EXTD=YEAR: 1961
EXTT0=
EXTT1=
EXTT2=
EXTT3=
EXTT4=
EXTT5=
EXTT6=
EXTT7=
EXTT8=
EXTT9=
EXTT10=
PLAYORDER=
